<?xml version="1.0" encoding="utf-8"?>
<!-- Generator: Adobe Illustrator 16.0.0, SVG Export Plug-In . SVG Version: 6.00 Build 0)  -->
<!DOCTYPE svg PUBLIC "-//W3C//DTD SVG 1.1//EN" "http://www.w3.org/Graphics/SVG/1.1/DTD/svg11.dtd">
<svg version="1.1" id="Layer_1" xmlns="http://www.w3.org/2000/svg" xmlns:xlink="http://www.w3.org/1999/xlink" x="0px" y="0px"
	 width="26.44px" height="26.968px" viewBox="284.283 407.501 26.44 26.968" enable-background="new 284.283 407.501 26.44 26.968"
	 xml:space="preserve">
<path fill="#4A979D" d="M310.556,417.223c-0.444-1.514-1.686-2.586-3.14-2.898c0.248-1.453-0.297-2.991-1.552-3.962
	c-1.348-1.043-3.138-1.14-4.556-0.391c-0.651-1.455-2.122-2.471-3.833-2.471c-1.593,0-2.978,0.88-3.687,2.175
	c-1.341-0.641-2.983-0.553-4.276,0.37c-1.292,0.922-1.896,2.437-1.707,3.898c-1.466,0.256-2.747,1.279-3.25,2.775
	c-0.504,1.496-0.1,3.075,0.917,4.151c-1.038,1.055-1.473,2.627-0.999,4.131c0.475,1.506,1.735,2.553,3.196,2.838
	c-0.219,1.457,0.354,2.984,1.629,3.932c1.272,0.947,2.915,1.066,4.267,0.451c0.685,1.311,2.052,2.217,3.644,2.246
	c1.592,0.031,2.994-0.82,3.729-2.102c1.327,0.666,2.972,0.609,4.281-0.287c1.311-0.896,1.943-2.4,1.784-3.865
	c1.47-0.227,2.771-1.225,3.305-2.711c0.533-1.486,0.16-3.072-0.835-4.168C310.532,420.299,311,418.737,310.556,417.223"/>
</svg>
